<svg xmlns="http://www.w3.org/2000/svg" enable-background="new 0 0 174.35 65.89" id="Layer_1" version="1.1" viewBox="0 0 174.35 65.89" x="0px" xml:space="preserve" y="0px">
<g id="change1_1"><path d="m159.12 26.24c-1.15-3.3-1.85-6.6-4.44-9.06-2.06-1.96-2.4-7.39-0.98-9.92 1.13-2.02 2.41-2.25 4.02-0.65 0.55 0.54 1.02 1.2 1.41 1.86 4.35 7.41 8.53 14.93 13.07 22.22 2.97 4.77 2.21 9.75 1.53 14.71-0.39 2.84-1.48 3.16-4.51 2.89-6.62-0.59-13.24-1.18-19.87-1.64-1.94-0.13-3.91 0.14-5.86 0.31-2.87 0.25-5.8 0.43-7.06 4.27-3.74-3.74-2.6-7.84-2.18-11.64 0.53-4.84 5-5.78 9.17-7.73-12.6-7.25-24.95-12.52-39.65-9.85 0.12 1.29 0.19 2.42 0.34 3.54 0.78 6 0.79 11.97-0.52 17.91-1.25 5.66-3.77 10.58-8.43 14.16-2.99 2.3-6.03 4.6-9.3 6.43-1.97 1.1-4.42 1.72-6.7 1.83-4.87 0.25-8.16-2.37-9.88-6.83-3.35-8.7-3.19-17.39 0.76-25.85 2.82-6.05 6.26-11.74 11.03-16.52 0.34-0.34 0.58-0.78 0.89-1.22-7.59-2.06-20.04 2.26-29.22 9.96 0.75 4.18 1.75 8.22 2.14 12.31 0.86 8.97-4.54 17.73-12.83 21.39-5.68 2.51-11.02 0.75-13.88-4.76-2.27-4.37-3.28-9.04-2.74-13.99 0.08-0.74 0.13-1.49 0.25-2.98-6.59 4.03-12.84 7.4-17.24 13.22-1.94 2.56-2.91 5.52-2.78 8.79 0.03 0.86-0.06 1.72-0.11 2.88-2.37-0.71-2.99-2.46-3.68-4.05-3.59-8.18-2.01-17.31 4.52-23.4 6.41-5.97 13.55-11.01 21.81-14.19 2.3-0.89 4.7-1.79 7.12-2.03 3.42-0.33 6.1-1.75 8.81-3.71 4.53-3.28 9.24-6.34 14.02-9.25 4.49-2.73 9.38-4.59 14.63-5.29 8.54-1.14 16.33 0.44 22.96 6.36 0.73 0.65 2.15 1.06 3.1 0.86 17.77-3.68 33.52 1.44 48.27 10.96 3.4 2.19 6.74 4.47 10.12 6.69 0.61 0.38 1.27 0.67 1.89 1.01zm-87.07 23c3.39 3.51 6.58 4.17 10.94 2.18 5.05-2.3 9.35-5.67 12.79-10.05 2.85-3.63 4.19-7.78 3.9-12.39-0.12-1.95-0.43-3.89-2.34-5.5-13.37 3.63-19.77 14.12-25.29 25.76zm-40.3-2.64c6.87 2.48 16.19-4.39 17.16-12.45-4.65-2.62-5.47-2.59-9.09 0.89-1.58 1.52-3.16 3.1-4.42 4.88-1.46 2.06-3.15 4.07-3.65 6.68z" fill="#fff"/></g>
</svg>