<?xml version="1.0" encoding="utf-8"?>
<svg viewBox="0 0 450 250" xmlns="http://www.w3.org/2000/svg" xmlns:bx="https://boxy-svg.com">
  <rect width="450" height="250" fill="rgba(61, 75, 105, 1)" style="" bx:origin="0.5 0.5"/>
  <g transform="matrix(0.015262, -0.086556, 0.086556, 0.015262, 8.774212, 209.193771)">
    <g>
      <path d="M497.535,14.465c-19.569-19.568-51.395-19.241-70.557,0.726L322.092,124.488L66.131,39.781L12.4,93.513l213.352,131.365 L117.796,337.372l-69.231-11.366L0,374.571l101.78,35.649L137.429,512l48.565-48.565l-11.366-69.231l112.494-107.955 L418.487,499.6l53.732-53.732l-84.706-255.961L496.808,85.022C516.776,65.86,517.103,34.034,497.535,14.465z" fill="rgba(71, 82, 108, 1)"/>
    </g>
  </g>
  <g transform="matrix(0.015262, -0.086556, 0.086556, 0.015262, 63.927635, 216.731018)">
    <g>
      <path d="M497.535,14.465c-19.569-19.568-51.395-19.241-70.557,0.726L322.092,124.488L66.131,39.781L12.4,93.513l213.352,131.365 L117.796,337.372l-69.231-11.366L0,374.571l101.78,35.649L137.429,512l48.565-48.565l-11.366-69.231l112.494-107.955 L418.487,499.6l53.732-53.732l-84.706-255.961L496.808,85.022C516.776,65.86,517.103,34.034,497.535,14.465z" fill="rgba(71, 82, 108, 1)"/>
    </g>
  </g>
  <g transform="matrix(0.015262, -0.086556, 0.086556, 0.015262, 21.828247, 154.624222)">
    <g>
      <path d="M497.535,14.465c-19.569-19.568-51.395-19.241-70.557,0.726L322.092,124.488L66.131,39.781L12.4,93.513l213.352,131.365 L117.796,337.372l-69.231-11.366L0,374.571l101.78,35.649L137.429,512l48.565-48.565l-11.366-69.231l112.494-107.955 L418.487,499.6l53.732-53.732l-84.706-255.961L496.808,85.022C516.776,65.86,517.103,34.034,497.535,14.465z" fill="rgba(71, 82, 108, 1)"/>
    </g>
  </g>
  <g transform="matrix(0.015262, -0.086556, 0.086556, 0.015262, 8.590927, 99.658844)">
    <g>
      <path d="M497.535,14.465c-19.569-19.568-51.395-19.241-70.557,0.726L322.092,124.488L66.131,39.781L12.4,93.513l213.352,131.365 L117.796,337.372l-69.231-11.366L0,374.571l101.78,35.649L137.429,512l48.565-48.565l-11.366-69.231l112.494-107.955 L418.487,499.6l53.732-53.732l-84.706-255.961L496.808,85.022C516.776,65.86,517.103,34.034,497.535,14.465z" fill="rgba(71, 82, 108, 1)"/>
    </g>
  </g>
  <g transform="matrix(0.015262, -0.086556, 0.086556, 0.015262, 119.062897, 230.656235)">
    <g>
      <path d="M497.535,14.465c-19.569-19.568-51.395-19.241-70.557,0.726L322.092,124.488L66.131,39.781L12.4,93.513l213.352,131.365 L117.796,337.372l-69.231-11.366L0,374.571l101.78,35.649L137.429,512l48.565-48.565l-11.366-69.231l112.494-107.955 L418.487,499.6l53.732-53.732l-84.706-255.961L496.808,85.022C516.776,65.86,517.103,34.034,497.535,14.465z" fill="rgba(71, 82, 108, 1)"/>
    </g>
  </g>
  <g transform="matrix(0.015262, -0.086556, 0.086556, 0.015262, 96.862648, 173.272308)">
    <g>
      <path d="M497.535,14.465c-19.569-19.568-51.395-19.241-70.557,0.726L322.092,124.488L66.131,39.781L12.4,93.513l213.352,131.365 L117.796,337.372l-69.231-11.366L0,374.571l101.78,35.649L137.429,512l48.565-48.565l-11.366-69.231l112.494-107.955 L418.487,499.6l53.732-53.732l-84.706-255.961L496.808,85.022C516.776,65.86,517.103,34.034,497.535,14.465z" fill="rgba(71, 82, 108, 1)"/>
    </g>
  </g>
  <g transform="matrix(0.015262, -0.086556, 0.086556, 0.015262, 70.474922, 107.23455)">
    <g>
      <path d="M497.535,14.465c-19.569-19.568-51.395-19.241-70.557,0.726L322.092,124.488L66.131,39.781L12.4,93.513l213.352,131.365 L117.796,337.372l-69.231-11.366L0,374.571l101.78,35.649L137.429,512l48.565-48.565l-11.366-69.231l112.494-107.955 L418.487,499.6l53.732-53.732l-84.706-255.961L496.808,85.022C516.776,65.86,517.103,34.034,497.535,14.465z" fill="rgba(71, 82, 108, 1)"/>
    </g>
  </g>
  <g transform="matrix(0.015262, -0.086556, 0.086556, 0.015262, 59.180153, 44.525249)">
    <g>
      <path d="M497.535,14.465c-19.569-19.568-51.395-19.241-70.557,0.726L322.092,124.488L66.131,39.781L12.4,93.513l213.352,131.365 L117.796,337.372l-69.231-11.366L0,374.571l101.78,35.649L137.429,512l48.565-48.565l-11.366-69.231l112.494-107.955 L418.487,499.6l53.732-53.732l-84.706-255.961L496.808,85.022C516.776,65.86,517.103,34.034,497.535,14.465z" fill="rgba(71, 82, 108, 1)"/>
    </g>
  </g>
  <g transform="matrix(0.015262, -0.086556, 0.086556, 0.015262, 177.209671, 241.800354)">
    <g>
      <path d="M497.535,14.465c-19.569-19.568-51.395-19.241-70.557,0.726L322.092,124.488L66.131,39.781L12.4,93.513l213.352,131.365 L117.796,337.372l-69.231-11.366L0,374.571l101.78,35.649L137.429,512l48.565-48.565l-11.366-69.231l112.494-107.955 L418.487,499.6l53.732-53.732l-84.706-255.961L496.808,85.022C516.776,65.86,517.103,34.034,497.535,14.465z" fill="rgba(71, 82, 108, 1)"/>
    </g>
  </g>
  <g transform="matrix(0.015262, -0.086556, 0.086556, 0.015262, 158.661453, 184.169083)">
    <g>
      <path d="M497.535,14.465c-19.569-19.568-51.395-19.241-70.557,0.726L322.092,124.488L66.131,39.781L12.4,93.513l213.352,131.365 L117.796,337.372l-69.231-11.366L0,374.571l101.78,35.649L137.429,512l48.565-48.565l-11.366-69.231l112.494-107.955 L418.487,499.6l53.732-53.732l-84.706-255.961L496.808,85.022C516.776,65.86,517.103,34.034,497.535,14.465z" fill="rgba(71, 82, 108, 1)"/>
    </g>
  </g>
  <g transform="matrix(0.015262, -0.086556, 0.086556, 0.015262, 139.163712, 120.680687)">
    <g>
      <path d="M497.535,14.465c-19.569-19.568-51.395-19.241-70.557,0.726L322.092,124.488L66.131,39.781L12.4,93.513l213.352,131.365 L117.796,337.372l-69.231-11.366L0,374.571l101.78,35.649L137.429,512l48.565-48.565l-11.366-69.231l112.494-107.955 L418.487,499.6l53.732-53.732l-84.706-255.961L496.808,85.022C516.776,65.86,517.103,34.034,497.535,14.465z" fill="rgba(71, 82, 108, 1)"/>
    </g>
  </g>
  <g transform="matrix(0.015262, -0.086556, 0.086556, 0.015262, 117.324524, 53.443233)">
    <g>
      <path d="M497.535,14.465c-19.569-19.568-51.395-19.241-70.557,0.726L322.092,124.488L66.131,39.781L12.4,93.513l213.352,131.365 L117.796,337.372l-69.231-11.366L0,374.571l101.78,35.649L137.429,512l48.565-48.565l-11.366-69.231l112.494-107.955 L418.487,499.6l53.732-53.732l-84.706-255.961L496.808,85.022C516.776,65.86,517.103,34.034,497.535,14.465z" fill="rgba(71, 82, 108, 1)"/>
    </g>
  </g>
  <g transform="matrix(0.015262, -0.086556, 0.086556, 0.015262, 195.395676, 131.930344)">
    <g>
      <path d="M497.535,14.465c-19.569-19.568-51.395-19.241-70.557,0.726L322.092,124.488L66.131,39.781L12.4,93.513l213.352,131.365 L117.796,337.372l-69.231-11.366L0,374.571l101.78,35.649L137.429,512l48.565-48.565l-11.366-69.231l112.494-107.955 L418.487,499.6l53.732-53.732l-84.706-255.961L496.808,85.022C516.776,65.86,517.103,34.034,497.535,14.465z" fill="rgba(71, 82, 108, 1)"/>
    </g>
  </g>
  <g transform="matrix(0.015262, -0.086556, 0.086556, 0.015262, 187.659988, 69.848633)">
    <g>
      <path d="M497.535,14.465c-19.569-19.568-51.395-19.241-70.557,0.726L322.092,124.488L66.131,39.781L12.4,93.513l213.352,131.365 L117.796,337.372l-69.231-11.366L0,374.571l101.78,35.649L137.429,512l48.565-48.565l-11.366-69.231l112.494-107.955 L418.487,499.6l53.732-53.732l-84.706-255.961L496.808,85.022C516.776,65.86,517.103,34.034,497.535,14.465z" fill="rgba(71, 82, 108, 1)"/>
    </g>
  </g>
  <g transform="matrix(0.015262, -0.086556, 0.086556, 0.015262, 208.459839, 190.280991)">
    <g>
      <path d="M497.535,14.465c-19.569-19.568-51.395-19.241-70.557,0.726L322.092,124.488L66.131,39.781L12.4,93.513l213.352,131.365 L117.796,337.372l-69.231-11.366L0,374.571l101.78,35.649L137.429,512l48.565-48.565l-11.366-69.231l112.494-107.955 L418.487,499.6l53.732-53.732l-84.706-255.961L496.808,85.022C516.776,65.86,517.103,34.034,497.535,14.465z" fill="rgba(71, 82, 108, 1)"/>
    </g>
  </g>
  <g transform="matrix(0.015262, -0.086556, 0.086556, 0.015262, 234.900467, 89.521271)">
    <g>
      <path d="M497.535,14.465c-19.569-19.568-51.395-19.241-70.557,0.726L322.092,124.488L66.131,39.781L12.4,93.513l213.352,131.365 L117.796,337.372l-69.231-11.366L0,374.571l101.78,35.649L137.429,512l48.565-48.565l-11.366-69.231l112.494-107.955 L418.487,499.6l53.732-53.732l-84.706-255.961L496.808,85.022C516.776,65.86,517.103,34.034,497.535,14.465z" fill="rgba(71, 82, 108, 1)"/>
    </g>
  </g>
  <g transform="matrix(0.015262, -0.086556, 0.086556, 0.015262, 5.328746, 44.370972)">
    <g>
      <path d="M497.535,14.465c-19.569-19.568-51.395-19.241-70.557,0.726L322.092,124.488L66.131,39.781L12.4,93.513l213.352,131.365 L117.796,337.372l-69.231-11.366L0,374.571l101.78,35.649L137.429,512l48.565-48.565l-11.366-69.231l112.494-107.955 L418.487,499.6l53.732-53.732l-84.706-255.961L496.808,85.022C516.776,65.86,517.103,34.034,497.535,14.465z" fill="rgba(71, 82, 108, 1)"/>
    </g>
  </g>
  <g transform="matrix(0.015262, -0.086556, 0.086556, 0.015262, 162.5327, 14.788838)">
    <g>
      <path d="M497.535,14.465c-19.569-19.568-51.395-19.241-70.557,0.726L322.092,124.488L66.131,39.781L12.4,93.513l213.352,131.365 L117.796,337.372l-69.231-11.366L0,374.571l101.78,35.649L137.429,512l48.565-48.565l-11.366-69.231l112.494-107.955 L418.487,499.6l53.732-53.732l-84.706-255.961L496.808,85.022C516.776,65.86,517.103,34.034,497.535,14.465z" fill="rgba(71, 82, 108, 1)"/>
    </g>
  </g>
  <g transform="matrix(0.015262, -0.086556, 0.086556, 0.015262, 230.870117, 24.645191)">
    <g>
      <path d="M497.535,14.465c-19.569-19.568-51.395-19.241-70.557,0.726L322.092,124.488L66.131,39.781L12.4,93.513l213.352,131.365 L117.796,337.372l-69.231-11.366L0,374.571l101.78,35.649L137.429,512l48.565-48.565l-11.366-69.231l112.494-107.955 L418.487,499.6l53.732-53.732l-84.706-255.961L496.808,85.022C516.776,65.86,517.103,34.034,497.535,14.465z" fill="rgba(71, 82, 108, 1)"/>
    </g>
  </g>
  <g transform="matrix(0.015262, -0.086556, 0.086556, 0.015262, 74.482544, 274.996765)">
    <g>
      <path d="M497.535,14.465c-19.569-19.568-51.395-19.241-70.557,0.726L322.092,124.488L66.131,39.781L12.4,93.513l213.352,131.365 L117.796,337.372l-69.231-11.366L0,374.571l101.78,35.649L137.429,512l48.565-48.565l-11.366-69.231l112.494-107.955 L418.487,499.6l53.732-53.732l-84.706-255.961L496.808,85.022C516.776,65.86,517.103,34.034,497.535,14.465z" fill="rgba(71, 82, 108, 1)"/>
    </g>
  </g>
  <g transform="matrix(0.015262, -0.086556, 0.086556, 0.015262, 236.126846, 250.684372)">
    <g>
      <path d="M497.535,14.465c-19.569-19.568-51.395-19.241-70.557,0.726L322.092,124.488L66.131,39.781L12.4,93.513l213.352,131.365 L117.796,337.372l-69.231-11.366L0,374.571l101.78,35.649L137.429,512l48.565-48.565l-11.366-69.231l112.494-107.955 L418.487,499.6l53.732-53.732l-84.706-255.961L496.808,85.022C516.776,65.86,517.103,34.034,497.535,14.465z" fill="rgba(71, 82, 108, 1)"/>
    </g>
  </g>
  <g transform="matrix(0.015262, -0.086556, 0.086556, 0.015262, 11.401841, 262.512024)">
    <g>
      <path d="M497.535,14.465c-19.569-19.568-51.395-19.241-70.557,0.726L322.092,124.488L66.131,39.781L12.4,93.513l213.352,131.365 L117.796,337.372l-69.231-11.366L0,374.571l101.78,35.649L137.429,512l48.565-48.565l-11.366-69.231l112.494-107.955 L418.487,499.6l53.732-53.732l-84.706-255.961L496.808,85.022C516.776,65.86,517.103,34.034,497.535,14.465z" fill="rgba(71, 82, 108, 1)"/>
    </g>
  </g>
  <g transform="matrix(0.015262, -0.086556, 0.086556, 0.015262, 326.515015, 221.330673)">
    <g>
      <path d="M497.535,14.465c-19.569-19.568-51.395-19.241-70.557,0.726L322.092,124.488L66.131,39.781L12.4,93.513l213.352,131.365 L117.796,337.372l-69.231-11.366L0,374.571l101.78,35.649L137.429,512l48.565-48.565l-11.366-69.231l112.494-107.955 L418.487,499.6l53.732-53.732l-84.706-255.961L496.808,85.022C516.776,65.86,517.103,34.034,497.535,14.465z" fill="rgba(71, 82, 108, 1)"/>
    </g>
  </g>
  <g transform="matrix(0.015262, -0.086556, 0.086556, 0.015262, 315.298889, 159.880951)">
    <g>
      <path d="M497.535,14.465c-19.569-19.568-51.395-19.241-70.557,0.726L322.092,124.488L66.131,39.781L12.4,93.513l213.352,131.365 L117.796,337.372l-69.231-11.366L0,374.571l101.78,35.649L137.429,512l48.565-48.565l-11.366-69.231l112.494-107.955 L418.487,499.6l53.732-53.732l-84.706-255.961L496.808,85.022C516.776,65.86,517.103,34.034,497.535,14.465z" fill="rgba(71, 82, 108, 1)"/>
    </g>
  </g>
  <g transform="matrix(0.015262, -0.086556, 0.086556, 0.015262, 294.833557, 101.630127)">
    <g>
      <path d="M497.535,14.465c-19.569-19.568-51.395-19.241-70.557,0.726L322.092,124.488L66.131,39.781L12.4,93.513l213.352,131.365 L117.796,337.372l-69.231-11.366L0,374.571l101.78,35.649L137.429,512l48.565-48.565l-11.366-69.231l112.494-107.955 L418.487,499.6l53.732-53.732l-84.706-255.961L496.808,85.022C516.776,65.86,517.103,34.034,497.535,14.465z" fill="rgba(71, 82, 108, 1)"/>
    </g>
  </g>
  <g transform="matrix(0.015262, -0.086556, 0.086556, 0.015262, 438.160065, 180.717346)">
    <g>
      <path d="M497.535,14.465c-19.569-19.568-51.395-19.241-70.557,0.726L322.092,124.488L66.131,39.781L12.4,93.513l213.352,131.365 L117.796,337.372l-69.231-11.366L0,374.571l101.78,35.649L137.429,512l48.565-48.565l-11.366-69.231l112.494-107.955 L418.487,499.6l53.732-53.732l-84.706-255.961L496.808,85.022C516.776,65.86,517.103,34.034,497.535,14.465z" fill="rgba(71, 82, 108, 1)"/>
    </g>
  </g>
  <g transform="matrix(0.015262, -0.086556, 0.086556, 0.015262, 377.848572, 169.986862)">
    <g>
      <path d="M497.535,14.465c-19.569-19.568-51.395-19.241-70.557,0.726L322.092,124.488L66.131,39.781L12.4,93.513l213.352,131.365 L117.796,337.372l-69.231-11.366L0,374.571l101.78,35.649L137.429,512l48.565-48.565l-11.366-69.231l112.494-107.955 L418.487,499.6l53.732-53.732l-84.706-255.961L496.808,85.022C516.776,65.86,517.103,34.034,497.535,14.465z" fill="rgba(71, 82, 108, 1)"/>
    </g>
  </g>
  <g transform="matrix(0.015262, -0.086556, 0.086556, 0.015262, 356.71756, 109.205826)">
    <g>
      <path d="M497.535,14.465c-19.569-19.568-51.395-19.241-70.557,0.726L322.092,124.488L66.131,39.781L12.4,93.513l213.352,131.365 L117.796,337.372l-69.231-11.366L0,374.571l101.78,35.649L137.429,512l48.565-48.565l-11.366-69.231l112.494-107.955 L418.487,499.6l53.732-53.732l-84.706-255.961L496.808,85.022C516.776,65.86,517.103,34.034,497.535,14.465z" fill="rgba(71, 82, 108, 1)"/>
    </g>
  </g>
  <g transform="matrix(0.015262, -0.086556, 0.086556, 0.015262, 345.422791, 46.496529)">
    <g>
      <path d="M497.535,14.465c-19.569-19.568-51.395-19.241-70.557,0.726L322.092,124.488L66.131,39.781L12.4,93.513l213.352,131.365 L117.796,337.372l-69.231-11.366L0,374.571l101.78,35.649L137.429,512l48.565-48.565l-11.366-69.231l112.494-107.955 L418.487,499.6l53.732-53.732l-84.706-255.961L496.808,85.022C516.776,65.86,517.103,34.034,497.535,14.465z" fill="rgba(71, 82, 108, 1)"/>
    </g>
  </g>
  <g transform="matrix(0.015262, -0.086556, 0.086556, 0.015262, 425.406342, 122.651962)">
    <g>
      <path d="M497.535,14.465c-19.569-19.568-51.395-19.241-70.557,0.726L322.092,124.488L66.131,39.781L12.4,93.513l213.352,131.365 L117.796,337.372l-69.231-11.366L0,374.571l101.78,35.649L137.429,512l48.565-48.565l-11.366-69.231l112.494-107.955 L418.487,499.6l53.732-53.732l-84.706-255.961L496.808,85.022C516.776,65.86,517.103,34.034,497.535,14.465z" fill="rgba(71, 82, 108, 1)"/>
    </g>
  </g>
  <g transform="matrix(0.015262, -0.086556, 0.086556, 0.015262, 403.567169, 55.414513)">
    <g>
      <path d="M497.535,14.465c-19.569-19.568-51.395-19.241-70.557,0.726L322.092,124.488L66.131,39.781L12.4,93.513l213.352,131.365 L117.796,337.372l-69.231-11.366L0,374.571l101.78,35.649L137.429,512l48.565-48.565l-11.366-69.231l112.494-107.955 L418.487,499.6l53.732-53.732l-84.706-255.961L496.808,85.022C516.776,65.86,517.103,34.034,497.535,14.465z" fill="rgba(71, 82, 108, 1)"/>
    </g>
  </g>
  <g transform="matrix(0.015262, -0.086556, 0.086556, 0.015262, 291.571381, 46.342247)">
    <g>
      <path d="M497.535,14.465c-19.569-19.568-51.395-19.241-70.557,0.726L322.092,124.488L66.131,39.781L12.4,93.513l213.352,131.365 L117.796,337.372l-69.231-11.366L0,374.571l101.78,35.649L137.429,512l48.565-48.565l-11.366-69.231l112.494-107.955 L418.487,499.6l53.732-53.732l-84.706-255.961L496.808,85.022C516.776,65.86,517.103,34.034,497.535,14.465z" fill="rgba(71, 82, 108, 1)"/>
    </g>
  </g>
  <g transform="matrix(0.015262, -0.086556, 0.086556, 0.015262, 255.839569, 148.178238)">
    <g>
      <path d="M497.535,14.465c-19.569-19.568-51.395-19.241-70.557,0.726L322.092,124.488L66.131,39.781L12.4,93.513l213.352,131.365 L117.796,337.372l-69.231-11.366L0,374.571l101.78,35.649L137.429,512l48.565-48.565l-11.366-69.231l112.494-107.955 L418.487,499.6l53.732-53.732l-84.706-255.961L496.808,85.022C516.776,65.86,517.103,34.034,497.535,14.465z" fill="rgba(71, 82, 108, 1)"/>
    </g>
  </g>
  <g transform="matrix(0.015262, -0.086556, 0.086556, 0.015262, 265.695923, 206.659302)">
    <g>
      <path d="M497.535,14.465c-19.569-19.568-51.395-19.241-70.557,0.726L322.092,124.488L66.131,39.781L12.4,93.513l213.352,131.365 L117.796,337.372l-69.231-11.366L0,374.571l101.78,35.649L137.429,512l48.565-48.565l-11.366-69.231l112.494-107.955 L418.487,499.6l53.732-53.732l-84.706-255.961L496.808,85.022C516.776,65.86,517.103,34.034,497.535,14.465z" fill="rgba(71, 82, 108, 1)"/>
    </g>
  </g>
  <g transform="matrix(0.015262, -0.086556, 0.086556, 0.015262, 291.979523, 265.797485)">
    <g>
      <path d="M497.535,14.465c-19.569-19.568-51.395-19.241-70.557,0.726L322.092,124.488L66.131,39.781L12.4,93.513l213.352,131.365 L117.796,337.372l-69.231-11.366L0,374.571l101.78,35.649L137.429,512l48.565-48.565l-11.366-69.231l112.494-107.955 L418.487,499.6l53.732-53.732l-84.706-255.961L496.808,85.022C516.776,65.86,517.103,34.034,497.535,14.465z" fill="rgba(71, 82, 108, 1)"/>
    </g>
  </g>
  <g transform="matrix(0.015262, -0.086556, 0.086556, 0.015262, 389.886078, 236.228394)">
    <g>
      <path d="M497.535,14.465c-19.569-19.568-51.395-19.241-70.557,0.726L322.092,124.488L66.131,39.781L12.4,93.513l213.352,131.365 L117.796,337.372l-69.231-11.366L0,374.571l101.78,35.649L137.429,512l48.565-48.565l-11.366-69.231l112.494-107.955 L418.487,499.6l53.732-53.732l-84.706-255.961L496.808,85.022C516.776,65.86,517.103,34.034,497.535,14.465z" fill="rgba(71, 82, 108, 1)"/>
    </g>
  </g>
  <g transform="matrix(0.015262, -0.086556, 0.086556, 0.015262, -36.565784, 186.289505)">
    <g>
      <path d="M497.535,14.465c-19.569-19.568-51.395-19.241-70.557,0.726L322.092,124.488L66.131,39.781L12.4,93.513l213.352,131.365 L117.796,337.372l-69.231-11.366L0,374.571l101.78,35.649L137.429,512l48.565-48.565l-11.366-69.231l112.494-107.955 L418.487,499.6l53.732-53.732l-84.706-255.961L496.808,85.022C516.776,65.86,517.103,34.034,497.535,14.465z" fill="rgba(71, 82, 108, 1)"/>
    </g>
  </g>
  <g transform="matrix(0.015262, -0.086556, 0.086556, 0.015262, 346.518066, 276.968018)">
    <g>
      <path d="M497.535,14.465c-19.569-19.568-51.395-19.241-70.557,0.726L322.092,124.488L66.131,39.781L12.4,93.513l213.352,131.365 L117.796,337.372l-69.231-11.366L0,374.571l101.78,35.649L137.429,512l48.565-48.565l-11.366-69.231l112.494-107.955 L418.487,499.6l53.732-53.732l-84.706-255.961L496.808,85.022C516.776,65.86,517.103,34.034,497.535,14.465z" fill="rgba(71, 82, 108, 1)"/>
    </g>
  </g>
</svg>