<?xml version="1.0" encoding="utf-8"?>
<svg viewBox="0 0 250 250" xmlns="http://www.w3.org/2000/svg">
  <rect x="0" y="0" width="250" height="250" fill="rgba(61, 75, 105, 1)"/>
  <g data-image="03491" transform="matrix(0.476436, -0.222166, 0.222304, 0.476733, 7.615262, -0.336128)" style="">
    <g>
      <svg version="1.1" width="98.95376795589783px" height="98.95376795589789px" viewBox="0 0 98.95376795589783 98.95376795589789" style="" transform="matrix(0.6939217418100193, 0, 0, 0.6672639051326098, 0, 5.367920994284928)">
        <g>
          <svg xmlns="http://www.w3.org/2000/svg" viewBox="0 0 490.7 490.7" version="1.1" preserveAspectRatio="xMidYMid meet">
            <path d="M436.2 154.6H182.4c-12.4 0-33.1 4.7-33.1 36.6V240h320v-48.8c0-31.8-20.7-36.6-33.1-36.6z" fill="rgba(71, 82, 108, 1)" stroke="none"/>
            <path d="M80.3 250.6H32V80H0v330.7h32v-85.4h426.7v85.3h32v-160z" fill="rgba(71, 82, 108, 1)" stroke="none"/>
            <circle cx="85.3" cy="197.3" r="44.7" fill="rgba(71, 82, 108, 1)" stroke="none"/>
          </svg>
        </g>
      </svg>
    </g>
  </g>
  <g data-image="03491" transform="matrix(0.476436, -0.222166, 0.222304, 0.476733, 10.389025, 199.229736)" style="">
    <g>
      <svg version="1.1" width="98.95376795589783px" height="98.95376795589789px" viewBox="0 0 98.95376795589783 98.95376795589789" style="" transform="matrix(0.6939217418100193, 0, 0, 0.6672639051326098, 0, 5.367920994284928)">
        <g>
          <svg xmlns="http://www.w3.org/2000/svg" viewBox="0 0 490.7 490.7" version="1.1" preserveAspectRatio="xMidYMid meet">
            <path d="M436.2 154.6H182.4c-12.4 0-33.1 4.7-33.1 36.6V240h320v-48.8c0-31.8-20.7-36.6-33.1-36.6z" fill="rgba(71, 82, 108, 1)" stroke="none"/>
            <path d="M80.3 250.6H32V80H0v330.7h32v-85.4h426.7v85.3h32v-160z" fill="rgba(71, 82, 108, 1)" stroke="none"/>
            <circle cx="85.3" cy="197.3" r="44.7" fill="rgba(71, 82, 108, 1)" stroke="none"/>
          </svg>
        </g>
      </svg>
    </g>
  </g>
  <g data-image="03491" transform="matrix(0.476436, -0.222166, 0.222304, 0.476733, 10.38902, 137.927063)" style="">
    <g>
      <svg version="1.1" width="98.95376795589783px" height="98.95376795589789px" viewBox="0 0 98.95376795589783 98.95376795589789" style="" transform="matrix(0.6939217418100193, 0, 0, 0.6672639051326098, 0, 5.367920994284928)">
        <g>
          <svg xmlns="http://www.w3.org/2000/svg" viewBox="0 0 490.7 490.7" version="1.1" preserveAspectRatio="xMidYMid meet">
            <path d="M436.2 154.6H182.4c-12.4 0-33.1 4.7-33.1 36.6V240h320v-48.8c0-31.8-20.7-36.6-33.1-36.6z" fill="rgba(71, 82, 108, 1)" stroke="none"/>
            <path d="M80.3 250.6H32V80H0v330.7h32v-85.4h426.7v85.3h32v-160z" fill="rgba(71, 82, 108, 1)" stroke="none"/>
            <circle cx="85.3" cy="197.3" r="44.7" fill="rgba(71, 82, 108, 1)" stroke="none"/>
          </svg>
        </g>
      </svg>
    </g>
  </g>
  <g data-image="03491" transform="matrix(0.476436, -0.222166, 0.222304, 0.476733, 8.473303, 57.467293)" style="">
    <g>
      <svg version="1.1" width="98.95376795589783px" height="98.95376795589789px" viewBox="0 0 98.95376795589783 98.95376795589789" style="" transform="matrix(0.6939217418100193, 0, 0, 0.6672639051326098, 0, 5.367920994284928)">
        <g>
          <svg xmlns="http://www.w3.org/2000/svg" viewBox="0 0 490.7 490.7" version="1.1" preserveAspectRatio="xMidYMid meet">
            <path d="M436.2 154.6H182.4c-12.4 0-33.1 4.7-33.1 36.6V240h320v-48.8c0-31.8-20.7-36.6-33.1-36.6z" fill="rgba(71, 82, 108, 1)" stroke="none"/>
            <path d="M80.3 250.6H32V80H0v330.7h32v-85.4h426.7v85.3h32v-160z" fill="rgba(71, 82, 108, 1)" stroke="none"/>
            <circle cx="85.3" cy="197.3" r="44.7" fill="rgba(71, 82, 108, 1)" stroke="none"/>
          </svg>
        </g>
      </svg>
    </g>
  </g>
  <g data-image="03491" transform="matrix(0.476436, -0.222166, 0.222304, 0.476733, 70.733841, 102.48645)" style="">
    <g>
      <svg version="1.1" width="98.95376795589783px" height="98.95376795589789px" viewBox="0 0 98.95376795589783 98.95376795589789" style="" transform="matrix(0.6939217418100193, 0, 0, 0.6672639051326098, 0, 5.367920994284928)">
        <g>
          <svg xmlns="http://www.w3.org/2000/svg" viewBox="0 0 490.7 490.7" version="1.1" preserveAspectRatio="xMidYMid meet">
            <path d="M436.2 154.6H182.4c-12.4 0-33.1 4.7-33.1 36.6V240h320v-48.8c0-31.8-20.7-36.6-33.1-36.6z" fill="rgba(71, 82, 108, 1)" stroke="none"/>
            <path d="M80.3 250.6H32V80H0v330.7h32v-85.4h426.7v85.3h32v-160z" fill="rgba(71, 82, 108, 1)" stroke="none"/>
            <circle cx="85.3" cy="197.3" r="44.7" fill="rgba(71, 82, 108, 1)" stroke="none"/>
          </svg>
        </g>
      </svg>
    </g>
  </g>
  <g data-image="03491" transform="matrix(0.476436, -0.222166, 0.222304, 0.476733, 68.339211, 29.210588)" style="">
    <g>
      <svg version="1.1" width="98.95376795589783px" height="98.95376795589789px" viewBox="0 0 98.95376795589783 98.95376795589789" style="" transform="matrix(0.6939217418100193, 0, 0, 0.6672639051326098, 0, 5.367920994284928)">
        <g>
          <svg xmlns="http://www.w3.org/2000/svg" viewBox="0 0 490.7 490.7" version="1.1" preserveAspectRatio="xMidYMid meet">
            <path d="M436.2 154.6H182.4c-12.4 0-33.1 4.7-33.1 36.6V240h320v-48.8c0-31.8-20.7-36.6-33.1-36.6z" fill="rgba(71, 82, 108, 1)" stroke="none"/>
            <path d="M80.3 250.6H32V80H0v330.7h32v-85.4h426.7v85.3h32v-160z" fill="rgba(71, 82, 108, 1)" stroke="none"/>
            <circle cx="85.3" cy="197.3" r="44.7" fill="rgba(71, 82, 108, 1)" stroke="none"/>
          </svg>
        </g>
      </svg>
    </g>
  </g>
  <g data-image="03491" transform="matrix(0.476436, -0.222166, 0.222304, 0.476733, 69.297066, 173.367676)" style="">
    <g>
      <svg version="1.1" width="98.95376795589783px" height="98.95376795589789px" viewBox="0 0 98.95376795589783 98.95376795589789" style="" transform="matrix(0.6939217418100193, 0, 0, 0.6672639051326098, 0, 5.367920994284928)">
        <g>
          <svg xmlns="http://www.w3.org/2000/svg" viewBox="0 0 490.7 490.7" version="1.1" preserveAspectRatio="xMidYMid meet">
            <path d="M436.2 154.6H182.4c-12.4 0-33.1 4.7-33.1 36.6V240h320v-48.8c0-31.8-20.7-36.6-33.1-36.6z" fill="rgba(71, 82, 108, 1)" stroke="none"/>
            <path d="M80.3 250.6H32V80H0v330.7h32v-85.4h426.7v85.3h32v-160z" fill="rgba(71, 82, 108, 1)" stroke="none"/>
            <circle cx="85.3" cy="197.3" r="44.7" fill="rgba(71, 82, 108, 1)" stroke="none"/>
          </svg>
        </g>
      </svg>
    </g>
  </g>
  <g data-image="03491" transform="matrix(0.476436, -0.222166, 0.222304, 0.476733, 129.162964, 6.701012)" style="">
    <g>
      <svg version="1.1" width="98.95376795589783px" height="98.95376795589789px" viewBox="0 0 98.95376795589783 98.95376795589789" style="" transform="matrix(0.6939217418100193, 0, 0, 0.6672639051326098, 0, 5.367920994284928)">
        <g>
          <svg xmlns="http://www.w3.org/2000/svg" viewBox="0 0 490.7 490.7" version="1.1" preserveAspectRatio="xMidYMid meet">
            <path d="M436.2 154.6H182.4c-12.4 0-33.1 4.7-33.1 36.6V240h320v-48.8c0-31.8-20.7-36.6-33.1-36.6z" fill="rgba(71, 82, 108, 1)" stroke="none"/>
            <path d="M80.3 250.6H32V80H0v330.7h32v-85.4h426.7v85.3h32v-160z" fill="rgba(71, 82, 108, 1)" stroke="none"/>
            <circle cx="85.3" cy="197.3" r="44.7" fill="rgba(71, 82, 108, 1)" stroke="none"/>
          </svg>
        </g>
      </svg>
    </g>
  </g>
  <g data-image="03491" transform="matrix(0.476436, -0.222166, 0.222304, 0.476733, 130.120804, 67.524765)" style="">
    <g>
      <svg version="1.1" width="98.95376795589783px" height="98.95376795589789px" viewBox="0 0 98.95376795589783 98.95376795589789" style="" transform="matrix(0.6939217418100193, 0, 0, 0.6672639051326098, 0, 5.367920994284928)">
        <g>
          <svg xmlns="http://www.w3.org/2000/svg" viewBox="0 0 490.7 490.7" version="1.1" preserveAspectRatio="xMidYMid meet">
            <path d="M436.2 154.6H182.4c-12.4 0-33.1 4.7-33.1 36.6V240h320v-48.8c0-31.8-20.7-36.6-33.1-36.6z" fill="rgba(71, 82, 108, 1)" stroke="none"/>
            <path d="M80.3 250.6H32V80H0v330.7h32v-85.4h426.7v85.3h32v-160z" fill="rgba(71, 82, 108, 1)" stroke="none"/>
            <circle cx="85.3" cy="197.3" r="44.7" fill="rgba(71, 82, 108, 1)" stroke="none"/>
          </svg>
        </g>
      </svg>
    </g>
  </g>
  <g data-image="03491" transform="matrix(0.476436, -0.222166, 0.222304, 0.476733, 130.599731, 141.279556)" style="">
    <g>
      <svg version="1.1" width="98.95376795589783px" height="98.95376795589789px" viewBox="0 0 98.95376795589783 98.95376795589789" style="" transform="matrix(0.6939217418100193, 0, 0, 0.6672639051326098, 0, 5.367920994284928)">
        <g>
          <svg xmlns="http://www.w3.org/2000/svg" viewBox="0 0 490.7 490.7" version="1.1" preserveAspectRatio="xMidYMid meet">
            <path d="M436.2 154.6H182.4c-12.4 0-33.1 4.7-33.1 36.6V240h320v-48.8c0-31.8-20.7-36.6-33.1-36.6z" fill="rgba(71, 82, 108, 1)" stroke="none"/>
            <path d="M80.3 250.6H32V80H0v330.7h32v-85.4h426.7v85.3h32v-160z" fill="rgba(71, 82, 108, 1)" stroke="none"/>
            <circle cx="85.3" cy="197.3" r="44.7" fill="rgba(71, 82, 108, 1)" stroke="none"/>
          </svg>
        </g>
      </svg>
    </g>
  </g>
  <g data-image="03491" transform="matrix(0.476436, -0.222166, 0.222304, 0.476733, 131.557602, 197.314026)" style="">
    <g>
      <svg version="1.1" width="98.95376795589783px" height="98.95376795589789px" viewBox="0 0 98.95376795589783 98.95376795589789" style="" transform="matrix(0.6939217418100193, 0, 0, 0.6672639051326098, 0, 5.367920994284928)">
        <g>
          <svg xmlns="http://www.w3.org/2000/svg" viewBox="0 0 490.7 490.7" version="1.1" preserveAspectRatio="xMidYMid meet">
            <path d="M436.2 154.6H182.4c-12.4 0-33.1 4.7-33.1 36.6V240h320v-48.8c0-31.8-20.7-36.6-33.1-36.6z" fill="rgba(71, 82, 108, 1)" stroke="none"/>
            <path d="M80.3 250.6H32V80H0v330.7h32v-85.4h426.7v85.3h32v-160z" fill="rgba(71, 82, 108, 1)" stroke="none"/>
            <circle cx="85.3" cy="197.3" r="44.7" fill="rgba(71, 82, 108, 1)" stroke="none"/>
          </svg>
        </g>
      </svg>
    </g>
  </g>
  <g data-image="03491" transform="matrix(0.476436, -0.222166, 0.222304, 0.476733, 191.184021, 108.47303)" style="">
    <g>
      <svg version="1.1" width="98.95376795589783px" height="98.95376795589789px" viewBox="0 0 98.95376795589783 98.95376795589789" style="" transform="matrix(0.6939217418100193, 0, 0, 0.6672639051326098, 0, 5.367920994284928)">
        <g>
          <svg xmlns="http://www.w3.org/2000/svg" viewBox="0 0 490.7 490.7" version="1.1" preserveAspectRatio="xMidYMid meet">
            <path d="M436.2 154.6H182.4c-12.4 0-33.1 4.7-33.1 36.6V240h320v-48.8c0-31.8-20.7-36.6-33.1-36.6z" fill="rgba(71, 82, 108, 1)" stroke="none"/>
            <path d="M80.3 250.6H32V80H0v330.7h32v-85.4h426.7v85.3h32v-160z" fill="rgba(71, 82, 108, 1)" stroke="none"/>
            <circle cx="85.3" cy="197.3" r="44.7" fill="rgba(71, 82, 108, 1)" stroke="none"/>
          </svg>
        </g>
      </svg>
    </g>
  </g>
  <g data-image="03491" transform="matrix(0.476436, -0.222166, 0.222304, 0.476733, 188.789398, 35.197178)" style="">
    <g>
      <svg version="1.1" width="98.95376795589783px" height="98.95376795589789px" viewBox="0 0 98.95376795589783 98.95376795589789" style="" transform="matrix(0.6939217418100193, 0, 0, 0.6672639051326098, 0, 5.367920994284928)">
        <g>
          <svg xmlns="http://www.w3.org/2000/svg" viewBox="0 0 490.7 490.7" version="1.1" preserveAspectRatio="xMidYMid meet">
            <path d="M436.2 154.6H182.4c-12.4 0-33.1 4.7-33.1 36.6V240h320v-48.8c0-31.8-20.7-36.6-33.1-36.6z" fill="rgba(71, 82, 108, 1)" stroke="none"/>
            <path d="M80.3 250.6H32V80H0v330.7h32v-85.4h426.7v85.3h32v-160z" fill="rgba(71, 82, 108, 1)" stroke="none"/>
            <circle cx="85.3" cy="197.3" r="44.7" fill="rgba(71, 82, 108, 1)" stroke="none"/>
          </svg>
        </g>
      </svg>
    </g>
  </g>
  <g data-image="03491" transform="matrix(0.476436, -0.222166, 0.222304, 0.476733, 189.747253, 179.354263)" style="">
    <g>
      <svg version="1.1" width="98.95376795589783px" height="98.95376795589789px" viewBox="0 0 98.95376795589783 98.95376795589789" style="" transform="matrix(0.6939217418100193, 0, 0, 0.6672639051326098, 0, 5.367920994284928)">
        <g>
          <svg xmlns="http://www.w3.org/2000/svg" viewBox="0 0 490.7 490.7" version="1.1" preserveAspectRatio="xMidYMid meet">
            <path d="M436.2 154.6H182.4c-12.4 0-33.1 4.7-33.1 36.6V240h320v-48.8c0-31.8-20.7-36.6-33.1-36.6z" fill="rgba(71, 82, 108, 1)" stroke="none"/>
            <path d="M80.3 250.6H32V80H0v330.7h32v-85.4h426.7v85.3h32v-160z" fill="rgba(71, 82, 108, 1)" stroke="none"/>
            <circle cx="85.3" cy="197.3" r="44.7" fill="rgba(71, 82, 108, 1)" stroke="none"/>
          </svg>
        </g>
      </svg>
    </g>
  </g>
</svg>