<svg xmlns="http://www.w3.org/2000/svg" xmlns:xlink="http://www.w3.org/1999/xlink" xmlns:fi="http://pattern.flaticon.com/" x="0" y="0" width="461" height="220" viewBox="0 0 692.090395480226 346.045197740113"><rect x="0px" y="0px" width="100%" height="100%" opacity="1" fill="#3d4b69"/><defs><g transform="matrix(0.20648707449436188 0 0 0.20648707449436188 95.36787084958837 50.33839113218983)" id="L1_0"><path d="M436.2,154.6H182.4c-12.4,0-33.1,4.7-33.1,36.6V240h320v-48.8C469.3,159.4,448.6,154.6,436.2,154.6z"/><path d="M80.3,250.6 32,250.6 32,80 0,80 0,410.7 32,410.7 32,325.3 458.7,325.3 458.7,410.6 490.7,410.6 490.7,250.6z"/><circle cx="85" cy="197" r="44"/></g><g transform="matrix(0.20648707449436188 0 0 0.20648707449436188 246.36787084958837 95.33838987189273)"><path d="M436.2,154.6H182.4c-12.4,0-33.1,4.7-33.1,36.6V240h320v-48.8C469.3,159.4,448.6,154.6,436.2,154.6z"/><path d="M80.3,250.6 32,250.6 32,80 0,80 0,410.7 32,410.7 32,325.3 458.7,325.3 458.7,410.6 490.7,410.6 490.7,250.6z"/><circle cx="85" cy="197" r="44"/></g><g transform="matrix(0.20648707449436188 0 0 0.20648707449436188 76.36787084958837 194.33838861159575)"><path d="M436.2,154.6H182.4c-12.4,0-33.1,4.7-33.1,36.6V240h320v-48.8C469.3,159.4,448.6,154.6,436.2,154.6z"/><path d="M80.3,250.6 32,250.6 32,80 0,80 0,410.7 32,410.7 32,325.3 458.7,325.3 458.7,410.6 490.7,410.6 490.7,250.6z"/><circle cx="85" cy="197" r="44"/></g><g transform="matrix(0.20648707449436188 0 0 0.20648707449436188 232.36787084958837 287.33838861159563)"><path d="M436.2,154.6H182.4c-12.4,0-33.1,4.7-33.1,36.6V240h320v-48.8C469.3,159.4,448.6,154.6,436.2,154.6z"/><path d="M80.3,250.6 32,250.6 32,80 0,80 0,410.7 32,410.7 32,325.3 458.7,325.3 458.7,410.6 490.7,410.6 490.7,250.6z"/><circle cx="85" cy="197" r="44"/></g></defs><g fi:class="KUsePattern" opacity="0.49"><pattern id="pattern_L1_0" width="350" height="350" patternUnits="userSpaceOnUse"><use xlink:href="#L1_0" x="-350" y="-350"/><use xlink:href="#L1_0" x="0" y="-350"/><use xlink:href="#L1_0" x="350" y="-350"/><use xlink:href="#L1_0" x="-350" y="0"/><use xlink:href="#L1_0" x="0" y="0"/><use xlink:href="#L1_0" x="350" y="0"/><use xlink:href="#L1_0" x="-350" y="350"/><use xlink:href="#L1_0" x="0" y="350"/><use xlink:href="#L1_0" x="350" y="350"/></pattern><rect x="0" y="0" width="100%" height="100%" fill="url(#pattern_L1_0)"/></g><g fi:class="KUsePattern" transform="matrix(1 0 0 1 20 20)" opacity="0.49"><pattern id="pattern_UNKNOWN" width="350" height="350" patternUnits="userSpaceOnUse"><use xlink:href="#UNKNOWN" x="-350" y="-350"/><use xlink:href="#UNKNOWN" x="0" y="-350"/><use xlink:href="#UNKNOWN" x="350" y="-350"/><use xlink:href="#UNKNOWN" x="-350" y="0"/><use xlink:href="#UNKNOWN" x="0" y="0"/><use xlink:href="#UNKNOWN" x="350" y="0"/><use xlink:href="#UNKNOWN" x="-350" y="350"/><use xlink:href="#UNKNOWN" x="0" y="350"/><use xlink:href="#UNKNOWN" x="350" y="350"/></pattern><rect x="0" y="0" width="100%" height="100%" fill="url(#pattern_UNKNOWN)"/></g><g fi:class="KUsePattern" transform="matrix(1 0 0 1 20 20)" opacity="0.49"><pattern id="pattern_UNKNOWN" width="350" height="350" patternUnits="userSpaceOnUse"><use xlink:href="#UNKNOWN" x="-350" y="-350"/><use xlink:href="#UNKNOWN" x="0" y="-350"/><use xlink:href="#UNKNOWN" x="350" y="-350"/><use xlink:href="#UNKNOWN" x="-350" y="0"/><use xlink:href="#UNKNOWN" x="0" y="0"/><use xlink:href="#UNKNOWN" x="350" y="0"/><use xlink:href="#UNKNOWN" x="-350" y="350"/><use xlink:href="#UNKNOWN" x="0" y="350"/><use xlink:href="#UNKNOWN" x="350" y="350"/></pattern><rect x="0" y="0" width="100%" height="100%" fill="url(#pattern_UNKNOWN)"/></g><g fi:class="KUsePattern" transform="matrix(1 0 0 1 40 40)" opacity="0.49"><pattern id="pattern_UNKNOWN" width="350" height="350" patternUnits="userSpaceOnUse"><use xlink:href="#UNKNOWN" x="-350" y="-350"/><use xlink:href="#UNKNOWN" x="0" y="-350"/><use xlink:href="#UNKNOWN" x="350" y="-350"/><use xlink:href="#UNKNOWN" x="-350" y="0"/><use xlink:href="#UNKNOWN" x="0" y="0"/><use xlink:href="#UNKNOWN" x="350" y="0"/><use xlink:href="#UNKNOWN" x="-350" y="350"/><use xlink:href="#UNKNOWN" x="0" y="350"/><use xlink:href="#UNKNOWN" x="350" y="350"/></pattern><rect x="0" y="0" width="100%" height="100%" fill="url(#pattern_UNKNOWN)"/></g></svg>